<?xml version="1.0" encoding="utf-8"?>
<!-- Generator: Adobe Illustrator 24.0.1, SVG Export Plug-In . SVG Version: 6.00 Build 0)  -->
<svg version="1.1" id="Layer_1" xmlns="http://www.w3.org/2000/svg" xmlns:xlink="http://www.w3.org/1999/xlink" x="0px" y="0px"
	 viewBox="0 0 60 60" style="enable-background:new 0 0 60 60;" xml:space="preserve">
<style type="text/css">
	.st0{fill:#C2252A;}
</style>
<path class="st0" d="M59.5,31.4c0-0.8-0.2-1.5-0.7-2.2c-0.5-0.7-1.2-0.8-1.9-0.2c-0.3,0.3-0.6,0.6-0.7,0.9c-0.1,0.3-0.3,0.4-0.7,0.4
	c-1.2-0.2-2.4-0.3-3.6-0.4c-0.3,0-0.4-0.1-0.4-0.5c0-1.6-0.1-3.2-0.5-4.7c-0.2-0.8-0.2-0.8,0.6-1.2c0.5-0.2,0.9-0.3,1.4,0.2
	c0.8,0.8,1.7,0.4,1.8-0.6c0.2-1.6-0.3-2.9-1.4-4c-0.8-0.7-1.7-0.5-1.8,0.6c-0.1,0.7-0.4,1-1,1.1c-0.1,0-0.2,0.1-0.3,0.1
	c-0.3,0.1-0.4,0.1-0.6-0.3c-0.5-1.2-1.1-2.4-1.9-3.5c-0.2-0.3-0.2-0.4,0.1-0.7c0.8-0.7,1.5-1.5,2.3-2.2c0.3-0.4,0.6-0.5,1.1-0.2
	c0.2,0.1,0.4,0.2,0.6,0.2c1.5,0.4,2.4-0.5,2.1-2c0,0,0,0,0-0.1c-0.7-2.2-2.1-3.7-4.2-4.6c-0.4-0.2-0.9-0.3-1.4-0.3
	c-0.7,0-1.1,0.4-1.3,1.1c-0.1,0.6,0,1.2,0.3,1.8c0.2,0.4,0.1,0.6-0.2,0.8c-0.8,0.7-1.6,1.5-2.3,2.3c-0.1,0.1-0.3,0.1-0.4,0
	c-0.9-0.8-1.9-1.6-2.9-2.2c-0.2-0.2-0.3-0.3-0.2-0.5c0.3-0.5,0.6-1.1,0.8-1.6c0.1-0.3,0.2-0.5,0.6-0.5c0.3,0,0.5-0.1,0.8-0.1
	c0.4,0,0.7-0.4,0.7-0.8c0-0.3-0.1-0.6-0.3-0.9c-0.7-1-1.7-1.5-2.9-1.8c-0.5-0.1-0.9-0.1-1.4,0c-0.5,0.2-0.8,0.6-0.6,1.2
	c0.1,0.3,0.3,0.6,0.5,0.9c0.1,0.1,0.2,0.3,0.1,0.4c-0.3,0.6-0.6,1.2-0.9,1.8c-0.1,0.2-0.2,0.3-0.5,0.2c-0.8-0.3-3.9-1.3-7.5-1.4
	c0-0.1-0.1-0.3-0.1-0.6c-0.1-0.6,0-1,0.6-1.3c0.9-0.5,0.9-1.5-0.1-1.9c-1.4-0.6-2.9-0.6-4.2,0.2C26,5,26.1,5.9,27.1,6.4
	c0.7,0.3,0.8,0.7,0.8,1.3c0,0.1,0,0.2,0,0.4c0,0,0,0.1,0,0.1c-0.7,0.1-1.5,0.2-2.2,0.3c-1,0.2-1.8,0.5-2.6,0.7c0,0,0-0.1-0.1-0.1
	c-0.5-1-1-1.9-1.5-2.8c-0.2-0.4-0.3-0.8,0.1-1.1c0.2-0.1,0.3-0.3,0.4-0.5c0.8-1.3,0.2-2.4-1.3-2.6c0,0,0,0-0.1,0
	c-2.3,0-4.1,1-5.6,2.7c-0.3,0.4-0.5,0.8-0.7,1.3c-0.2,0.7,0.1,1.2,0.7,1.5c0.6,0.3,1.2,0.3,1.8,0.2c0.4-0.1,0.6,0.1,0.7,0.4
	c0.5,1,1,1.9,1.5,2.9c-0.3,0.1-0.5,0.3-0.7,0.4c-1.9,0.9-3.3,2.5-4.6,4.1c-0.2,0.2-0.3,0.2-0.4,0c-0.4-0.4-0.8-0.8-1.2-1.1
	c-0.3-0.2-0.3-0.4-0.2-0.7c0.1-0.2,0.1-0.5,0.1-0.8c0-0.6-0.5-1.1-1.1-1c-0.2,0-0.5,0.1-0.7,0.2c-1.2,0.6-2.1,1.5-2.6,2.8
	c-0.1,0.3-0.2,0.7-0.2,1c0,0.6,0.4,0.9,1,0.9c0.4,0,0.7-0.1,1.1-0.3c0.3-0.1,0.4-0.1,0.7,0.3c0.3,0.4,0.7,0.8,1.2,1.1
	c0.4,0.2,0.4,0.4,0.3,0.6c-1.1,1.9-1.9,3.9-2.4,6.1c-0.1,0.3-0.1,0.3-0.6,0.2c-1-0.3-2-0.4-3-0.3c-0.4,0-0.5-0.1-0.6-0.4
	c-0.1-0.5-0.3-1-0.7-1.3c-0.4-0.5-1.2-0.5-1.7-0.1C2.3,22.8,2.1,23,2,23.2c-0.8,1.3-1,2.7-0.9,4.1c0.1,0.7,0.2,1.4,0.7,2
	C2.1,30,3,30.1,3.6,29.6c0.3-0.3,0.6-0.6,0.8-1c0.1-0.3,0.3-0.3,0.7-0.2c0.9,0.3,1.8,0.4,2.7,0.3c0.6,0,0.8,0.1,0.7,0.5
	c0,1.7,0.2,3.4,0.6,5c0.1,0.3,0,0.4-0.4,0.5c-0.4,0.1-0.8,0.2-1.2,0.4c-0.3,0.2-0.4,0.2-0.6,0c-0.1-0.1-0.2-0.2-0.3-0.3
	c-0.3-0.3-0.7-0.5-1.2-0.4c-0.5,0.2-0.6,0.6-0.7,1c-0.1,1.6,0.3,2.9,1.5,4c0.8,0.7,1.6,0.4,1.7-0.6c0.1-0.8,0.5-1.1,1.1-1.2
	c0.2,0,0.4-0.1,0.6-0.2c0.3-0.1,0.4-0.1,0.5,0.2c0.5,1.1,1,2.2,1.7,3.2c0.2,0.2,0.1,0.4-0.1,0.5c-0.6,0.5-1.2,1.1-1.8,1.7
	c-0.5,0.5-0.9,0.9-1.6,0.4c0,0-0.1,0-0.2-0.1c-1-0.2-1.6,0.4-1.4,1.4c0.3,1.4,1.2,2.4,2.3,3.2c0.4,0.3,0.9,0.5,1.5,0.6
	c0.7,0.1,1.2-0.3,1.2-1c0-0.4-0.1-0.8-0.2-1.1c-0.1-0.2-0.1-0.3,0.1-0.5c0.7-0.6,1.4-1.3,2.1-2c0.2-0.2,0.3-0.2,0.5,0
	c0.9,1,2,1.9,3.1,2.8c0.7,0.5,0.7,0.5,0.3,1.2c0,0.1-0.1,0.1-0.1,0.2c-0.1,0.4-0.3,0.7-0.5,1c-0.2,0.2-0.5,0-0.7,0
	c-1.1,0.1-1.4,0.8-0.8,1.7c0.1,0.1,0.1,0.2,0.2,0.3c0.8,0.8,1.7,1.4,2.8,1.5c0.5,0.1,1.1,0.1,1.5-0.4c0.4-0.6,0-1.1-0.4-1.5
	c-0.2-0.2-0.2-0.3,0.1-0.6c0.3-0.4,0.5-0.7,0.6-1.2c0.1-0.3,0.2-0.3,0.4-0.2c1.4,0.7,2.8,1.1,4.3,1.5c-0.1,1-0.1,2-0.2,3.1
	c0,0.5-0.1,0.8-0.6,0.9c-0.2,0-0.4,0.2-0.6,0.3c-1.4,0.7-1.4,2-0.2,2.9c0,0,0,0,0,0c2,1.2,4.1,1.3,6.2,0.6c0.5-0.2,0.9-0.4,1.2-0.8
	c0.5-0.5,0.5-1.1,0.2-1.7c-0.3-0.5-0.8-0.9-1.4-1.1c-0.4-0.1-0.4-0.4-0.4-0.7c0.1-1,0.1-1.9,0.2-2.9c0.1,0,0.1,0,0.2,0
	c1.8,0.1,3.6-0.2,5.3-0.6c0.3-0.1,0.3,0,0.4,0.4c0.1,0.4,0.3,0.8,0.5,1.2c0.1,0.3,0.1,0.4-0.1,0.6c-0.3,0.2-0.5,0.5-0.6,0.8
	c-0.2,0.6,0.2,1,0.8,1.2c0.5,0.1,1,0.1,1.6-0.1c1-0.3,1.6-0.5,2.3-1.3c0.7-0.7,0.4-1.5-0.6-1.6c-0.8-0.1-1-0.5-1.1-1.1
	c-0.1-0.2-0.1-0.4-0.2-0.6C38,49.3,38,49.1,38.3,49c1.2-0.5,2.3-1.1,3.3-1.7c0.3-0.2,0.4-0.2,0.6,0.1c0.8,1,1.5,2,2.3,2.9
	c0.3,0.4,0.4,0.6,0.1,1.1c-0.4,0.6-0.6,1.3-0.5,2.1c0.1,0.4,0.3,0.5,0.7,0.7c0.5,0.3,1.6,0.3,2.3,0.1c1.3-0.4,1.8-0.6,2.7-1.4
	c0.4-0.3,0.7-0.6,1-1c0.7-0.8,1.3-1.6,1.4-2.7c0.1-1-0.4-1.7-1.4-1.8c-0.6-0.1-1.2,0-1.8,0.2c-0.3,0.1-0.5,0-0.7-0.3
	c-0.7-1.1-1.6-2.2-2.5-3.1c-0.3-0.3-0.2-0.5,0-0.7c0.6-0.6,1.1-1.3,1.7-2.1c0.2-0.3,0.4-0.7,0.6-0.8c0.3-0.1,0.6,0.3,0.9,0.4
	c0.5,0.2,1,0.4,0.8,1.2c0,0.1,0,0.2,0,0.4c0.2,0.8,0.7,1,1.4,0.7c1.3-0.6,2.5-2.7,2.3-4c-0.1-0.9-0.8-1.3-1.6-0.8
	c-0.7,0.5-1.1,0.3-1.7,0c-0.1-0.1-0.4-0.2-0.5-0.3c-0.2-0.1-0.3-0.3-0.2-0.5c0.6-1.2,0.9-2.5,1.2-3.7c0.1-0.3,0.2-0.3,0.4-0.3
	c1.3,0.2,2.5,0.3,3.8,0.4c0.2,0,0.3,0.1,0.4,0.3c0.1,0.5,0.3,1,0.7,1.4c0.5,0.5,1.1,0.6,1.7,0.2c0.4-0.3,0.6-0.6,0.9-1
	C59.3,33.8,59.5,32.6,59.5,31.4z"/>
</svg>
